<?xml version="1.0" encoding="UTF-8"?>
<svg id="Layer_2" data-name="Layer 2" xmlns="http://www.w3.org/2000/svg" viewBox="0 0 61.4 61.15">
  <defs>
    <style>
      .cls-1, .cls-2 {
        fill: #ed1c24;
      }

      .cls-2 {
        stroke: #ed1c24;
        stroke-linecap: round;
        stroke-linejoin: round;
        stroke-width: 3.24px;
      }
    </style>
  </defs>
  <g id="Layer_1-2" data-name="Layer 1">
    <g id="Generative_Object" data-name="Generative Object">
      <g>
        <path class="cls-1" d="M32.43,5.36h28.74l.21,30.72c-.1.61-2.25.57-2.43.46-.57-.37-2.17-10.51-2.29-11.94-.14-1.62-.08-8.64-.28-9.3s-1.34-.65-1.53,0c-.1.35-.03,5.39,0,6.2.18,4.82,1.05,10.27,2.36,14.77-1.39,1.27-2.84-1.94-3.61-3.28-2.67-4.66-5.08-11.33-6.66-16.77-.33-1.15-1.47-7.19-2.01-7.38-1.87-.67-.59,3.72-.35,4.83,1.69,7.78,5.21,16.43,9.16,22.61,0,.33-1.4.31-1.74.46-.45.19-.49.89-.83.91-.51.03-5.53-4.51-6.25-5.29-6.15-6.61-10.64-16.92-12.49-26.98Z"/>
        <path class="cls-1" d="M.22,5.36h28.88c-1.93,9.86-6.43,20.22-12.49,26.8-.71.77-5.92,5.52-6.39,5.47-.07,0-.72-.91-1.11-1.09-.28-.13-1.27.29-1.32-.27,2.57-4.15,4.82-8.99,6.53-13.86.63-1.8,3.66-11.69,3.33-12.95-.15-.59-1.06-.77-1.39-.36-.19.24-1.26,5.63-1.53,6.56-1.55,5.33-3.98,11.99-6.53,16.59-.25.46-3.34,6.23-3.89,4.01,1.27-4.39,2.17-9.7,2.36-14.4.04-.93.13-5.85,0-6.38-.15-.62-1.33-.96-1.53-.36-.15.44-.15,8.17-.28,9.66s-1.6,11.36-2.43,11.76c-.1.05-1.99.06-2.08,0L.22,5.36Z"/>
        <path class="cls-1" d="M58.8,44.01c.13-.07,2.49-.05,2.57.09l-.21,17.05-3.82-.09c-.24-2.21.12-16.29,1.46-17.05Z"/>
        <path class="cls-1" d="M.22,44.01c.52.15,1.99-.21,2.36,0,1.42.78,2.07,14.9,1.39,17.14l-3.82-.09.07-17.05Z"/>
        <path class="cls-1" d="M51.17,43.47c.27-.08,2.08.96,2.71.64-3.2,4.49-3.33,10.94-3.19,16.77l-3.26.27c-.21-5.08-.34-10.01,1.74-14.5.18-.39,1.86-3.15,2.01-3.19Z"/>
        <path class="cls-1" d="M9.8,43.47c1.16-.2,3.65,5.87,3.96,7.38.27,1.3.8,9.96.21,10.3l-3.12-.09c.19-5.99-.05-11.98-3.05-16.77.55.01,1.82-.79,2.01-.82Z"/>
        <path class="cls-1" d="M56.03,44.01c1.76-.74.52,1.62.35,2.64-.78,4.74-.53,9.39-.56,14.22l-3.4.27c-.2-4.82-.31-9.66,1.6-13.95.21-.47,1.75-3.08,2.01-3.19Z"/>
        <path class="cls-1" d="M4.52,44.01c1.31-.98,3.77,5.11,4.1,6.47.77,3.2.7,7.34.35,10.67l-3.26-.27c.02-5.7.27-11.41-1.18-16.87Z"/>
        <path class="cls-1" d="M.22,38.73h8.47c.09.08.13,2.63.07,2.83-.32,1.06-7.41.08-8.54.27v-3.1Z"/>
        <path class="cls-1" d="M52.83,38.73c.35-.32,7.42.25,8.47,0,.09.08.12,2.66.07,2.83-.2.58-7.73.55-8.61.18.06-.48-.11-2.84.07-3.01Z"/>
      </g>
      <line class="cls-2" x1="1.62" y1="1.62" x2="59.67" y2="1.63"/>
    </g>
  </g>
</svg>