<?xml version="1.0" encoding="UTF-8"?>
<svg id="Layer_2" data-name="Layer 2" xmlns="http://www.w3.org/2000/svg" viewBox="0 0 402.94 74.89">
  <defs>
    <style>
      .cls-1, .cls-2 {
        fill: #ed1c24;
      }

      .cls-3 {
        font-family: MuseoModernoRoman-Medium, MuseoModerno;
        font-size: 48px;
        font-variation-settings: 'wght' 500;
        font-weight: 500;
      }

      .cls-3, .cls-4, .cls-5 {
        fill: #38383a;
      }

      .cls-2 {
        stroke: #ed1c24;
        stroke-linecap: round;
        stroke-linejoin: round;
        stroke-width: 3.24px;
      }

      .cls-4 {
        font-size: 60.2px;
      }

      .cls-4, .cls-5 {
        font-family: MuseoModernoRoman-Regular, MuseoModerno;
        font-variation-settings: 'wght' 400;
      }

      .cls-5 {
        font-size: 60.29px;
      }

      .cls-6 {
        letter-spacing: -.07em;
      }

      .cls-7 {
        letter-spacing: -.08em;
      }

      .cls-8 {
        letter-spacing: -.08em;
      }

      .cls-9 {
        letter-spacing: -.09em;
      }

      .cls-10 {
        letter-spacing: -.09em;
      }

      .cls-11 {
        letter-spacing: -.07em;
      }

      .cls-12 {
        letter-spacing: -.06em;
      }

      .cls-13 {
        letter-spacing: -.05em;
      }

      .cls-14 {
        letter-spacing: -.05em;
      }
    </style>
  </defs>
  <g id="Layer_1-2" data-name="Layer 1">
    <g id="Generative_Object" data-name="Generative Object">
      <g>
        <path class="cls-1" d="M186.47,5h34.76l.25,27.77c-.12.55-2.72.52-2.94.41-.68-.33-2.62-9.5-2.77-10.79-.17-1.46-.1-7.81-.34-8.4s-1.62-.58-1.85,0c-.12.31-.04,4.88,0,5.6.22,4.36,1.27,9.29,2.85,13.35-1.68,1.15-3.44-1.75-4.37-2.97-3.22-4.21-6.14-10.24-8.06-15.16-.4-1.04-1.78-6.5-2.43-6.67-2.26-.6-.71,3.37-.42,4.37,2.05,7.03,6.3,14.85,11.08,20.43,0,.29-1.69.28-2.1.41-.55.17-.6.81-1.01.82-.62.03-6.69-4.08-7.56-4.78-7.44-5.97-12.86-15.29-15.11-24.39Z"/>
        <path class="cls-1" d="M147.51,5h34.92c-2.33,8.91-7.77,18.27-15.11,24.23-.85.69-7.16,4.98-7.72,4.94-.08,0-.87-.82-1.34-.99-.34-.12-1.53.26-1.6-.25,3.11-3.75,5.84-8.13,7.89-12.52.76-1.63,4.42-10.57,4.03-11.7-.18-.53-1.29-.7-1.68-.33-.23.21-1.52,5.09-1.85,5.93-1.87,4.82-4.81,10.84-7.89,15-.31.41-4.04,5.63-4.7,3.63,1.54-3.97,2.62-8.76,2.85-13.02.05-.84.16-5.29,0-5.77-.19-.56-1.6-.87-1.85-.33-.18.4-.18,7.39-.34,8.73s-1.93,10.27-2.94,10.63c-.12.04-2.4.05-2.52,0l-.17-28.18Z"/>
        <path class="cls-1" d="M218.37,39.94c.15-.07,3.02-.04,3.11.08l-.25,15.41-4.62-.08c-.29-2,.15-14.72,1.76-15.41Z"/>
        <path class="cls-1" d="M147.51,39.94c.63.14,2.4-.19,2.85,0,1.72.7,2.5,13.46,1.68,15.49l-4.62-.08.08-15.41Z"/>
        <path class="cls-1" d="M209.13,39.44c.33-.07,2.51.86,3.27.58-3.86,4.06-4.02,9.89-3.86,15.16l-3.95.25c-.26-4.59-.41-9.05,2.1-13.1.22-.35,2.25-2.84,2.43-2.88Z"/>
        <path class="cls-1" d="M159.1,39.44c1.41-.18,4.41,5.31,4.79,6.67.32,1.17.97,9,.25,9.31l-3.78-.08c.23-5.42-.06-10.82-3.69-15.16.67.01,2.2-.71,2.43-.74Z"/>
        <path class="cls-1" d="M215.01,39.94c2.12-.67.62,1.47.42,2.39-.94,4.29-.64,8.49-.67,12.85l-4.11.25c-.24-4.36-.38-8.73,1.93-12.61.25-.43,2.12-2.78,2.43-2.88Z"/>
        <path class="cls-1" d="M152.72,39.94c1.58-.88,4.56,4.62,4.95,5.85.93,2.9.85,6.63.42,9.64l-3.95-.25c.02-5.15.32-10.31-1.43-15.24Z"/>
        <path class="cls-1" d="M147.51,35.16h10.24c.11.07.15,2.38.08,2.55-.38.96-8.96.07-10.33.25v-2.8Z"/>
        <path class="cls-1" d="M211.15,35.16c.42-.29,8.98.22,10.24,0,.11.07.15,2.41.08,2.55-.24.53-9.35.5-10.41.16.07-.43-.13-2.57.08-2.72Z"/>
      </g>
      <line class="cls-2" x1="144.41" y1="1.62" x2="225.17" y2="1.63"/>
    </g>
    <text class="cls-5" transform="translate(0 55.47)"><tspan class="cls-11" x="0" y="0">B</tspan><tspan class="cls-10" x="37.76" y="0">A</tspan><tspan class="cls-7" x="74.65" y="0">C</tspan><tspan class="cls-13" x="100.78" y="0">K</tspan></text>
    <text class="cls-4" transform="translate(223.87 55.47)"><tspan class="cls-8" x="0" y="0">S</tspan><tspan class="cls-6" x="32.97" y="0">T</tspan><tspan class="cls-9" x="62.67" y="0">A</tspan><tspan class="cls-12" x="99.11" y="0">G</tspan><tspan class="cls-14" x="145.18" y="0">E</tspan></text>
    <text class="cls-3" transform="translate(171.84 55.47)"><tspan x="0" y="0">2</tspan></text>
  </g>
</svg>