<?xml version="1.0" encoding="UTF-8"?>
<svg id="Layer_2" data-name="Layer 2" xmlns="http://www.w3.org/2000/svg" viewBox="0 0 395.71 68.72">
  <defs>
    <style>
      .cls-1 {
        fill: #f2f2f3;
      }

      .cls-2, .cls-3 {
        fill: #ed1c24;
      }

      .cls-3 {
        stroke: #ed1c24;
        stroke-linecap: round;
        stroke-linejoin: round;
        stroke-width: 3.24px;
      }
    </style>
  </defs>
  <g id="Layer_1-2" data-name="Layer 1">
    <g id="Generative_Object" data-name="Generative Object">
      <g>
        <path class="cls-2" d="M181.89,5h34.76l.25,27.77c-.12.55-2.72.52-2.94.41-.68-.33-2.62-9.5-2.77-10.79-.17-1.46-.1-7.81-.34-8.4s-1.62-.58-1.85,0c-.12.31-.04,4.88,0,5.6.22,4.36,1.27,9.29,2.85,13.35-1.68,1.15-3.44-1.75-4.37-2.97-3.22-4.21-6.14-10.24-8.06-15.16-.4-1.04-1.78-6.5-2.43-6.67-2.26-.6-.71,3.37-.42,4.37,2.05,7.03,6.3,14.85,11.08,20.43,0,.29-1.69.28-2.1.41-.55.17-.6.81-1.01.82-.62.03-6.69-4.08-7.56-4.78-7.44-5.97-12.86-15.29-15.11-24.39Z"/>
        <path class="cls-2" d="M142.93,5h34.92c-2.33,8.91-7.77,18.27-15.11,24.23-.85.69-7.16,4.98-7.72,4.94-.08,0-.87-.82-1.34-.99-.34-.12-1.53.26-1.6-.25,3.11-3.75,5.84-8.13,7.89-12.52.76-1.63,4.42-10.57,4.03-11.7-.18-.53-1.29-.7-1.68-.33-.23.21-1.52,5.09-1.85,5.93-1.87,4.82-4.81,10.84-7.89,15-.31.41-4.04,5.63-4.7,3.63,1.54-3.97,2.62-8.76,2.85-13.02.05-.84.16-5.29,0-5.77-.19-.56-1.6-.87-1.85-.33-.18.4-.18,7.39-.34,8.73s-1.93,10.27-2.94,10.63c-.12.04-2.4.05-2.52,0l-.17-28.18Z"/>
        <path class="cls-2" d="M213.79,39.94c.15-.07,3.02-.04,3.11.08l-.25,15.41-4.62-.08c-.29-2,.15-14.72,1.76-15.41Z"/>
        <path class="cls-2" d="M142.93,39.94c.63.14,2.4-.19,2.85,0,1.72.7,2.5,13.46,1.68,15.49l-4.62-.08.08-15.41Z"/>
        <path class="cls-2" d="M204.55,39.44c.33-.07,2.51.86,3.27.58-3.86,4.06-4.02,9.89-3.86,15.16l-3.95.25c-.26-4.59-.41-9.05,2.1-13.1.22-.35,2.25-2.84,2.43-2.88Z"/>
        <path class="cls-2" d="M154.52,39.44c1.41-.18,4.41,5.31,4.79,6.67.32,1.17.97,9,.25,9.31l-3.78-.08c.23-5.42-.06-10.82-3.69-15.16.67.01,2.2-.71,2.43-.74Z"/>
        <path class="cls-2" d="M210.43,39.94c2.12-.67.62,1.47.42,2.39-.94,4.29-.64,8.49-.67,12.85l-4.11.25c-.24-4.36-.38-8.73,1.93-12.61.25-.43,2.12-2.78,2.43-2.88Z"/>
        <path class="cls-2" d="M148.14,39.94c1.58-.88,4.56,4.62,4.95,5.85.93,2.9.85,6.63.42,9.64l-3.95-.25c.02-5.15.32-10.31-1.43-15.24Z"/>
        <path class="cls-2" d="M142.93,35.16h10.24c.11.07.15,2.38.08,2.55-.38.96-8.96.07-10.33.25v-2.8Z"/>
        <path class="cls-2" d="M206.57,35.16c.42-.29,8.98.22,10.24,0,.11.07.15,2.41.08,2.55-.24.53-9.35.5-10.41.16.07-.43-.13-2.57.08-2.72Z"/>
      </g>
      <line class="cls-3" x1="139.83" y1="1.62" x2="220.59" y2="1.63"/>
    </g>
    <g>
      <path class="cls-1" d="M0,55.47V13.27h22.91c2.13,0,4,.47,5.61,1.42,1.61.95,2.87,2.22,3.8,3.83.92,1.61,1.39,3.44,1.39,5.49,0,1.41-.29,2.76-.87,4.07-.58,1.31-1.4,2.44-2.44,3.41-1.05.96-2.29,1.69-3.74,2.17,1.65.4,3.08,1.13,4.28,2.17,1.21,1.05,2.16,2.29,2.86,3.74.7,1.45,1.05,3.01,1.05,4.7,0,2.09-.48,3.98-1.45,5.67s-2.3,3.04-4.01,4.04c-1.71,1-3.75,1.51-6.12,1.51H0ZM5.79,31.54h15.13c1.41,0,2.64-.31,3.71-.93,1.06-.62,1.89-1.45,2.47-2.47.58-1.02.88-2.1.88-3.23s-.28-2.24-.84-3.23c-.56-.98-1.35-1.78-2.35-2.38-1-.6-2.17-.9-3.5-.9H5.79v13.14ZM5.79,50.35h16.16c1.49,0,2.75-.33,3.8-.99s1.86-1.53,2.44-2.59c.58-1.06.87-2.2.87-3.41s-.3-2.38-.9-3.41c-.6-1.02-1.45-1.87-2.53-2.53s-2.37-.99-3.86-.99H5.79v13.93Z"/>
      <path class="cls-1" d="M33.3,55.47l14.35-38.17c.64-1.65,1.53-2.85,2.65-3.62,1.12-.76,2.43-1.15,3.92-1.15s2.8.37,3.95,1.12c1.15.74,2.02,1.94,2.62,3.59l14.41,38.23h-6.33l-3.68-10.19h-22.07l-3.74,10.19h-6.09ZM44.94,40.16h18.51l-7.54-20.92c-.2-.52-.42-.92-.66-1.21-.24-.28-.58-.42-1.02-.42-.4,0-.72.14-.96.42s-.44.68-.6,1.21l-7.72,20.92Z"/>
      <path class="cls-1" d="M93.46,55.47c-3.22,0-6.15-.55-8.8-1.66-2.65-1.1-4.93-2.62-6.84-4.55-1.91-1.93-3.38-4.17-4.4-6.72-1.03-2.55-1.54-5.28-1.54-8.17s.51-5.62,1.54-8.17c1.02-2.55,2.49-4.79,4.4-6.72,1.91-1.93,4.19-3.45,6.84-4.55,2.65-1.1,5.59-1.66,8.8-1.66h5.43v5.12h-5.25c-2.29,0-4.4.4-6.33,1.21-1.93.8-3.61,1.93-5.03,3.38-1.43,1.45-2.54,3.13-3.35,5.06-.8,1.93-1.21,4.04-1.21,6.33s.4,4.35,1.21,6.3c.8,1.95,1.92,3.65,3.35,5.09,1.43,1.45,3.1,2.57,5.03,3.38,1.93.8,4.04,1.21,6.33,1.21h5.25v5.12h-5.43Z"/>
      <path class="cls-1" d="M100.78,55.47V13.27h5.79v18.99h10.97c1.69,0,3.24-.31,4.64-.93,1.41-.62,2.52-1.55,3.35-2.77.82-1.23,1.24-2.68,1.24-4.37v-10.91h5.73v10.85c0,2.77-.7,5.18-2.11,7.2-1.41,2.03-3.28,3.57-5.61,4.61l5.49,12.54c.28.64.62,1.12,1.03,1.42.4.3.96.45,1.69.45h3.01v5.12h-3.92c-1.77,0-3.23-.39-4.37-1.18-1.15-.78-2.04-1.88-2.68-3.29l-6.03-13.75c-.48.04-.95.07-1.39.09-.44.02-.92.03-1.45.03h-9.59v18.09h-5.79Z"/>
    </g>
    <g>
      <path class="cls-1" d="M223.68,55.47v-5.12h18.24c1.4,0,2.61-.33,3.61-.99,1-.66,1.79-1.51,2.35-2.56.56-1.04.84-2.15.84-3.31s-.27-2.32-.81-3.34-1.3-1.85-2.29-2.47c-.98-.62-2.18-.93-3.58-.93h-7.95c-2.37,0-4.46-.49-6.26-1.48-1.81-.98-3.22-2.35-4.24-4.09-1.02-1.75-1.54-3.72-1.54-5.93s.49-4.27,1.47-6.08c.98-1.81,2.37-3.23,4.15-4.27s3.84-1.57,6.17-1.57h17.88v5.12h-17.34c-1.32,0-2.49.31-3.49.93-1,.62-1.77,1.42-2.29,2.41-.52.98-.78,2.04-.78,3.16s.25,2.12.75,3.1,1.24,1.78,2.23,2.38c.98.6,2.12.9,3.4.9h8.13c2.53,0,4.7.5,6.5,1.5,1.81,1,3.19,2.37,4.15,4.09.96,1.73,1.45,3.69,1.45,5.9,0,2.45-.49,4.63-1.48,6.53-.98,1.91-2.38,3.4-4.18,4.49-1.81,1.08-3.87,1.62-6.2,1.62h-18.9Z"/>
      <path class="cls-1" d="M277.6,55.47c-2.29,0-4.27-.49-5.93-1.47-1.67-.98-2.95-2.33-3.85-4.03-.9-1.71-1.35-3.62-1.35-5.75v-25.77h-12.82v-5.12h31.42v5.12h-12.82v26.49c0,1.57.49,2.86,1.47,3.88.98,1.02,2.3,1.54,3.94,1.54h2.77v5.12h-2.83Z"/>
      <path class="cls-1" d="M282.08,55.47l14.33-38.11c.64-1.65,1.52-2.85,2.65-3.61,1.12-.76,2.43-1.14,3.91-1.14s2.8.37,3.94,1.11c1.14.74,2.02,1.94,2.62,3.58l14.39,38.17h-6.32l-3.67-10.17h-22.03l-3.73,10.17h-6.08ZM293.69,40.18h18.48l-7.53-20.89c-.2-.52-.42-.92-.66-1.2-.24-.28-.58-.42-1.02-.42-.4,0-.72.14-.96.42-.24.28-.44.68-.6,1.2l-7.71,20.89Z"/>
      <path class="cls-1" d="M354.09,68.72c-2.01,0-3.78-.39-5.33-1.17-1.55-.78-2.76-1.94-3.64-3.46s-1.32-3.35-1.32-5.48c0-.52.02-1.05.06-1.6.04-.54.1-1.09.18-1.66-3.29.2-6.34-.18-9.15-1.14-2.81-.96-5.26-2.4-7.34-4.3-2.09-1.91-3.71-4.21-4.88-6.92-1.17-2.71-1.75-5.69-1.75-8.94,0-2.97.5-5.75,1.5-8.34,1-2.59,2.45-4.87,4.33-6.83,1.89-1.97,4.16-3.5,6.83-4.61,2.67-1.1,5.63-1.66,8.88-1.66s6.2.54,8.85,1.62c2.65,1.08,4.92,2.6,6.8,4.55,1.89,1.95,3.34,4.18,4.36,6.71s1.54,5.26,1.54,8.19v24.26c0,2.17-.4,4.06-1.2,5.69-.8,1.63-1.94,2.88-3.4,3.76-1.47.88-3.24,1.32-5.33,1.32ZM342.47,50.41c.64,0,1.24-.03,1.81-.09.56-.06,1.16-.17,1.81-.33.56-1.36,1.35-2.75,2.38-4.15,1.02-1.4,2.33-2.8,3.91-4.18,1.58-1.38,3.54-2.68,5.87-3.88v-4.09c0-2.29-.39-4.4-1.17-6.35-.78-1.95-1.89-3.63-3.31-5.06-1.42-1.42-3.1-2.55-5.03-3.37-1.93-.82-4.01-1.23-6.26-1.23s-4.38.41-6.29,1.23c-1.91.82-3.57,1.98-5,3.46-1.43,1.48-2.53,3.22-3.31,5.21s-1.17,4.14-1.17,6.47.39,4.48,1.17,6.47c.78,1.99,1.89,3.72,3.31,5.21,1.42,1.49,3.09,2.64,5,3.46,1.91.82,4,1.23,6.29,1.23ZM353.73,63.54c1.32,0,2.41-.47,3.25-1.42.84-.94,1.26-2.3,1.26-4.06v-14.33c-1.77,1.04-3.23,2.16-4.39,3.34-1.17,1.18-2.08,2.39-2.74,3.61-.66,1.23-1.13,2.45-1.42,3.67-.28,1.22-.42,2.44-.42,3.64s.21,2.16.63,2.98c.42.82.97,1.45,1.66,1.9.68.44,1.4.66,2.17.66Z"/>
      <path class="cls-1" d="M379.21,55.47c-2.33,0-4.38-.55-6.17-1.66-1.79-1.1-3.18-2.56-4.18-4.36-1-1.81-1.5-3.77-1.5-5.9,0-1.93.45-3.73,1.35-5.42.9-1.69,2.22-3.01,3.94-3.97-1.69-1.08-2.97-2.43-3.85-4.03s-1.32-3.29-1.32-5.06c0-2.17.51-4.13,1.54-5.9,1.02-1.77,2.42-3.18,4.18-4.24,1.76-1.06,3.71-1.59,5.84-1.59h16.68v5.12h-16.01c-1.24,0-2.35.3-3.31.9-.96.6-1.73,1.4-2.29,2.38-.56.98-.84,2.1-.84,3.34,0,1.16.29,2.23.87,3.19.58.96,1.37,1.74,2.38,2.32,1,.58,2.11.87,3.31.87h13.67v5.12h-13.24c-1.49,0-2.76.33-3.82.99-1.06.66-1.89,1.53-2.47,2.59-.58,1.06-.87,2.2-.87,3.4s.28,2.33.84,3.37c.56,1.04,1.36,1.88,2.41,2.5,1.04.62,2.27.93,3.67.93h15.71v5.12h-16.5Z"/>
    </g>
    <path class="cls-1" d="M175.13,55.47c-1.22,0-2.28-.26-3.19-.79-.91-.53-1.62-1.22-2.11-2.09-.5-.86-.74-1.84-.74-2.93,0-.99.26-1.98.79-2.95.53-.98,1.22-1.78,2.09-2.42l10.61-7.58c.9-.64,1.57-1.38,2.02-2.23.45-.85.67-1.72.67-2.62,0-.99-.22-1.85-.67-2.57-.45-.72-1.09-1.3-1.92-1.73-.83-.43-1.86-.65-3.07-.65h-8.79v-5.04h9.46c2.21,0,4.11.45,5.71,1.34,1.6.9,2.83,2.1,3.7,3.6.86,1.5,1.29,3.18,1.29,5.04s-.39,3.52-1.18,4.99c-.78,1.47-2.02,2.8-3.72,3.98l-10.66,7.3c-.16.13-.31.3-.46.5-.14.21-.22.42-.22.65,0,.35.11.63.34.84.22.21.56.31,1.01.31h15.79v5.04h-16.75Z"/>
  </g>
</svg>